<?xml version="1.0" encoding="UTF-8" standalone="no"?>
<svg
   width="47.99971"
   height="48"
   viewBox="0 0 47.99971 48"
   fill="none"
   version="1.1"
   id="svg6242"
   xmlns="http://www.w3.org/2000/svg"
   xmlns:svg="http://www.w3.org/2000/svg">
  <defs
     id="defs6246" />
  <path
     fill-rule="evenodd"
     clip-rule="evenodd"
     d="m 40.257609,7.32313 c 0.4441,-2.57399 1.0957,-4.19259 1.8175,-4.19569 h 0.0016 c 1.346,0.00464 2.4371,5.61796 2.4371,12.54846 0,6.9304 -1.0927,12.5484 -2.4402,12.5484 -0.5524,0 -1.0621,-0.9539 -1.4726,-2.5524 -0.6486,5.8514 -1.9946,9.874 -3.5527,9.874 -1.2056,0 -2.2876,-2.4163 -3.014,-6.2271 -0.496,7.2474 -1.7443,12.3892 -3.2033,12.3892 -0.9156,0 -1.7504,-2.0375 -2.3684,-5.3551 -0.7432,6.8485 -2.46,11.6471 -4.4623,11.6471 -2.0022,0 -3.722,-4.7971 -4.4622,-11.6471 -0.6135,3.3176 -1.4482,5.3551 -2.3685,5.3551 -1.4589,0 -2.7042,-5.1418 -3.2032,-12.3892 -0.7264,3.8108 -1.8053,6.2271 -3.014,6.2271 -1.5566,0 -2.90409,-4.021 -3.55267,-9.874 -0.40746,1.6032 -0.92022,2.5524 -1.47266,2.5524 -1.34752,0 -2.44019,-5.618 -2.44019,-12.5484 0,-6.9305 1.09267,-12.54846 2.44019,-12.54846 0.72336,0 1.37041,1.62324 1.81908,4.19569 C 8.464939,2.88473 9.632409,0 10.952409,0 c 1.5673,0 2.9255,4.07975 3.568,10.0038 0.6287,-4.31164 1.5825,-7.06032 2.6508,-7.06032 1.497,0 2.7698,5.40616 3.2414,12.94732 0.8866,-3.8665 2.17,-6.29204 3.5908,-6.29204 1.4208,0 2.7042,2.42714 3.5893,6.29204 0.4731,-7.54116 1.7443,-12.94732 3.2414,-12.94732 1.0667,0 2.019,2.74868 2.6508,7.06032 C 34.125809,4.07975 35.484009,0 37.051309,0 c 1.3155,0 2.4875,2.88628 3.2063,7.32313 z M 1.7372131e-8,14.4417 C 1.7372131e-8,11.3436 0.61958902,8.83142 1.384149,8.83142 c 0.76456,0 1.38415,2.51218 1.38415,5.61028 0,3.098 -0.61959,5.6102 -1.38415,5.6102 C 0.61958902,20.0519 1.7372132e-8,17.5397 1.7372131e-8,14.4417 Z M 45.231409,14.4417 c 0,-3.0981 0.6195,-5.61028 1.3841,-5.61028 0.7646,0 1.3842,2.51218 1.3842,5.61028 0,3.098 -0.6196,5.6102 -1.3842,5.6102 -0.7646,0 -1.3841,-2.5122 -1.3841,-5.6102 z"
     fill="#a238ff"
     id="path6240" />
</svg>
