<?xml version="1.0" encoding="UTF-8" standalone="no"?>
<svg
   data-name="Layer 1"
   viewBox="0 0 1860.1108 1736.1036"
   x="0px"
   y="0px"
   version="1.1"
   id="svg5492"
   sodipodi:docname="pixel-heart.svg"
   inkscape:export-filename="..\OneDrive\Documents\MUSIQUE\Promo\tour\heart.svg"
   inkscape:export-xdpi="96"
   inkscape:export-ydpi="96"
   width="1860.1108"
   height="1736.1036"
   xmlns:inkscape="http://www.inkscape.org/namespaces/inkscape"
   xmlns:sodipodi="http://sodipodi.sourceforge.net/DTD/sodipodi-0.dtd"
   xmlns="http://www.w3.org/2000/svg"
   xmlns:svg="http://www.w3.org/2000/svg">
  <defs
     id="defs5496" />
  <sodipodi:namedview
     id="namedview5494"
     pagecolor="#ffffff"
     bordercolor="#000000"
     borderopacity="0.25"
     inkscape:showpageshadow="2"
     inkscape:pageopacity="0.0"
     inkscape:pagecheckerboard="0"
     inkscape:deskcolor="#d1d1d1"
     showgrid="false" />
  <title
     id="title5484">2-life</title>
  <path
     d="M 1722.1527,248.01479 V 110.05656 h -94.5556 V 0 H 1102.1157 V 110.05656 H 992.0592 V 248.01479 H 868.0518 V 110.05656 H 744.04438 V 0 H 232.51387 V 110.05656 H 124.0074 V 248.01479 H 0 v 496.02958 h 124.0074 v 248.0148 h 108.50647 v 137.95823 h 124.00739 v 125.5575 h 139.50832 v 108.5065 h 124.0074 v 124.0074 h 124.0074 v 124.0074 H 868.0518 v 124.0074 h 124.0074 v -124.0074 h 110.0565 v -124.0074 h 137.9583 v -124.0074 h 137.9582 v -108.5065 h 110.0566 v -124.0074 h 139.5083 V 992.05917 h 96.1057 v -248.0148 h 136.4081 V 248.01479 Z m -1102.11572,0 H 372.02219 V 730.09357 H 232.51387 V 248.01479 H 372.02219 V 110.05656 h 248.01479 z"
     id="path5486"
     inkscape:export-filename="..\OneDrive\Documents\MUSIQUE\Promo\tour\pixel-heart.svg"
     inkscape:export-xdpi="300"
     inkscape:export-ydpi="300"
     style="stroke-width:38.7523" />
</svg>
